<svg xmlns="http://www.w3.org/2000/svg" viewBox="0 0 1440 820" preserveAspectRatio="xMidYMid slice">
  <rect width="1440" height="820" fill="#efe7dd"/>

  <path fill="#fbf7f0" d="M0 0h1440v122c-118 28-265 40-438 18C789 113 661 40 452 21 276 5 122 28 0 78V0Z"/>

  <path fill="#d9cfc5" d="M0 96c142-48 306-63 493-20 184 42 323 124 544 116 152-5 285-52 403-109v134c-154 69-313 98-495 75-201-25-350-111-557-104C229 194 99 242 0 310V96Z"/>

  <path fill="#fffaf3" d="M0 236c91-70 215-108 374-112 217-5 369 82 580 103 192 19 354-31 486-93v124c-151 71-317 116-517 97-211-20-360-95-560-74-148 16-269 86-363 186V236Z"/>

  <path fill="#c8b7a9" opacity=".92" d="M0 416c108-116 244-168 408-150 188 21 331 103 553 91 190-10 347-83 479-156v154c-143 75-300 147-501 157-210 10-361-70-542-70C234 442 104 523 0 656V416Z"/>

  <path fill="#f6eee6" d="M0 575c104-121 231-183 393-177 184 7 335 83 550 75 191-7 350-80 497-169v516H0V575Z"/>

  <path fill="#e5d8cc" d="M1440 820H0v-86c115-72 248-106 407-92 204 18 363 83 583 51 178-26 321-112 450-194v321Z"/>

  <path fill="#baa694" opacity=".35" d="M1240 820c-34-71-18-146 43-202 44-40 99-64 157-76v278h-200Z"/>

  <path fill="none" stroke="#a67a5b" stroke-width="2" opacity=".28" d="M-12 682c117-82 250-125 399-112 214 19 377 84 598 50 184-28 326-118 467-209"/>
  <path fill="none" stroke="#a67a5b" stroke-width="1.5" opacity=".18" d="M-20 716c122-78 255-111 401-96 208 22 370 76 588 43 176-27 315-103 463-191"/>
</svg>
