<svg xmlns="http://www.w3.org/2000/svg" viewBox="0 0 1024 696" preserveAspectRatio="xMidYMid slice">
  <rect width="1024" height="696" fill="#d6d6d6"/>

  <path fill="#eeeeee" d="M0 0h1024v72c-92 23-207 39-341 38-168-2-289-35-411-76C171 0 86-3 0 22V0Z"/>

  <path fill="#c9c9c9" d="M0 174c78-32 160-47 265-30 149 25 246 88 405 82 129-5 246-48 354-81v136c-122 37-243 63-371 56-183-10-305-76-461-67C110 275 48 298 0 326V174Z"/>

  <path fill="#f0f0f0" d="M0 176c85-41 178-56 281-39 124 21 215 75 350 76 144 1 273-54 393-91v91c-116 34-237 72-383 68-155-4-258-61-393-63-104-1-180 31-248 82V176Z"/>

  <path fill="#dedede" d="M0 305c95-47 194-56 330-34 150 24 278 59 447 28 93-17 175-48 247-79v105c-94 39-199 74-333 78-165 5-292-44-440-45-108-1-187 36-247 92L0 305Z"/>

  <path fill="#f3f3f3" d="M0 421c56-59 129-95 241-103 157-11 284 38 448 28 129-8 237-56 335-105v91c-109 52-225 104-378 113-171 10-298-35-450-14-88 12-152 57-196 116V421Z"/>

  <path fill="#c7c7c7" d="M0 538c54-85 132-139 243-158 153-27 276 23 435 10 135-11 246-75 346-128v132c-108 56-219 112-354 131-162 23-299-7-446 21-89 17-163 69-224 150V538Z"/>

  <path fill="#eeeeee" d="M0 696V579c75-66 160-98 275-90 148 10 270 53 424 24 121-23 221-88 325-151v334H0Z"/>

  <path fill="#d6d6d6" d="M1024 696H883c-18-35-14-72 13-107 30-39 74-64 128-79v186Z"/>
</svg>
